<svg xmlns="http://www.w3.org/2000/svg" version="1.1" xmlns:xlink="http://www.w3.org/1999/xlink" xmlns:svgjs="http://svgjs.com/svgjs" width="1080" height="783"><svg id="SvgjsSvg1000" data-name="Layer 1" xmlns="http://www.w3.org/2000/svg" viewBox="0 0 1080 783">
  <defs>
    <style>
      .cls-1 {
        fill: #5c6566;
      }

      .cls-1, .cls-2, .cls-3, .cls-4 {
        stroke-width: 0px;
      }

      .cls-2 {
        fill: #2b2b2b;
      }

      .cls-3 {
        fill: #3cc0bf;
      }

      .cls-4 {
        fill: #008786;
      }
    </style>
  </defs>
  <g>
    <path class="cls-4" d="m57.5,702.92c0-11.69,8.93-20.23,20.96-20.23,6.1,0,11.41,2.09,15.03,6.16l-3.67,3.56c-3.05-3.22-6.78-4.69-11.13-4.69-8.93,0-15.54,6.44-15.54,15.2s6.61,15.2,15.54,15.2c4.35,0,8.08-1.53,11.13-4.75l3.67,3.56c-3.62,4.07-8.93,6.21-15.08,6.21-11.98,0-20.9-8.53-20.9-20.22Z"></path>
    <path class="cls-4" d="m97.49,702.92c0-11.58,8.93-20.23,21.07-20.23s20.96,8.59,20.96,20.23-8.93,20.22-20.96,20.22-21.07-8.64-21.07-20.22Zm36.38,0c0-8.76-6.55-15.2-15.31-15.2s-15.42,6.44-15.42,15.2,6.55,15.2,15.42,15.2,15.31-6.44,15.31-15.2Z"></path>
    <path class="cls-4" d="m182.17,683.15v39.54h-4.63l-23.73-29.49v29.49h-5.65v-39.54h4.63l23.73,29.49v-29.49h5.65Z"></path>
    <path class="cls-4" d="m190.42,718.17l2.09-4.41c2.94,2.65,7.97,4.57,13.05,4.57,6.84,0,9.77-2.65,9.77-6.1,0-9.66-23.95-3.56-23.95-18.25,0-6.1,4.75-11.3,15.14-11.3,4.63,0,9.43,1.24,12.71,3.5l-1.86,4.52c-3.45-2.2-7.34-3.22-10.85-3.22-6.72,0-9.6,2.83-9.6,6.27,0,9.66,23.95,3.62,23.95,18.14,0,6.05-4.86,11.24-15.31,11.24-6.05,0-11.98-2.03-15.14-4.97Z"></path>
    <path class="cls-4" d="m236.4,688.06h-13.56v-4.91h32.71v4.91h-13.56v34.63h-5.59v-34.63Z"></path>
    <path class="cls-4" d="m288.15,722.69l-8.53-12.15c-.79.05-1.64.11-2.49.11h-9.77v12.03h-5.65v-39.54h15.42c10.28,0,16.5,5.2,16.5,13.78,0,6.1-3.16,10.51-8.7,12.48l9.38,13.28h-6.16Zm-.17-25.76c0-5.65-3.79-8.87-11.02-8.87h-9.6v17.8h9.6c7.23,0,11.02-3.28,11.02-8.93Z"></path>
    <path class="cls-4" d="m302.43,705.63v-22.48h5.65v22.26c0,8.76,4.01,12.71,11.13,12.71s11.19-3.95,11.19-12.71v-22.26h5.48v22.48c0,11.47-6.27,17.51-16.72,17.51s-16.72-6.05-16.72-17.51Z"></path>
    <path class="cls-4" d="m344.24,702.92c0-11.69,8.93-20.23,20.96-20.23,6.1,0,11.41,2.09,15.03,6.16l-3.67,3.56c-3.05-3.22-6.78-4.69-11.13-4.69-8.93,0-15.54,6.44-15.54,15.2s6.61,15.2,15.54,15.2c4.35,0,8.08-1.53,11.13-4.75l3.67,3.56c-3.62,4.07-8.93,6.21-15.08,6.21-11.98,0-20.9-8.53-20.9-20.22Z"></path>
    <path class="cls-4" d="m395.7,688.06h-13.56v-4.91h32.71v4.91h-13.56v34.63h-5.59v-34.63Z"></path>
    <path class="cls-4" d="m421,683.15h5.65v39.54h-5.65v-39.54Z"></path>
    <path class="cls-4" d="m435.3,702.92c0-11.58,8.93-20.23,21.07-20.23s20.96,8.59,20.96,20.23-8.93,20.22-20.96,20.22-21.07-8.64-21.07-20.22Zm36.38,0c0-8.76-6.55-15.2-15.31-15.2s-15.42,6.44-15.42,15.2,6.55,15.2,15.42,15.2,15.31-6.44,15.31-15.2Z"></path>
    <path class="cls-4" d="m519.98,683.15v39.54h-4.63l-23.73-29.49v29.49h-5.65v-39.54h4.63l23.73,29.49v-29.49h5.65Z"></path>
    <path class="cls-4" d="m575.96,723.32l-5.25-5.25c-3.45,3.33-7.97,5.08-13.22,5.08-8.02,0-13.84-4.24-13.84-10.28,0-4.86,2.77-8.25,9.6-12.15-3.56-3.56-4.75-6.1-4.75-9.04,0-5.31,4.18-8.87,10.68-8.87,5.99,0,9.83,3.11,9.83,8.25,0,4.01-2.37,6.89-8.42,10.34l9.77,9.72c1.07-2.03,1.92-4.41,2.43-7.17l4.35,1.41c-.68,3.5-1.86,6.55-3.45,9.04l5.31,5.31-3.05,3.62Zm-8.47-8.42l-11.24-11.19c-5.54,3.11-7.29,5.42-7.29,8.59,0,3.79,3.56,6.33,8.87,6.33,3.79,0,7.12-1.24,9.66-3.73Zm-13.95-23.33c0,2.03.79,3.5,4.01,6.78,5.2-2.94,6.89-4.74,6.89-7.23s-1.86-4.35-5.25-4.35c-3.56,0-5.65,1.98-5.65,4.8Z"></path>
    <path class="cls-4" d="m627.42,722.69l-8.53-12.15c-.79.05-1.64.11-2.49.11h-9.77v12.03h-5.65v-39.54h15.42c10.28,0,16.5,5.2,16.5,13.78,0,6.1-3.16,10.51-8.7,12.48l9.38,13.28h-6.16Zm-.17-25.76c0-5.65-3.79-8.87-11.02-8.87h-9.6v17.8h9.6c7.23,0,11.02-3.28,11.02-8.93Z"></path>
    <path class="cls-4" d="m670.75,717.78v4.91h-28.7v-39.54h27.91v4.91h-22.26v12.15h19.83v4.8h-19.83v12.77h23.05Z"></path>
    <path class="cls-4" d="m713.9,683.15v39.54h-4.63l-23.73-29.49v29.49h-5.65v-39.54h4.63l23.73,29.49v-29.49h5.65Z"></path>
    <path class="cls-4" d="m722.54,702.92c0-11.58,8.93-20.23,21.07-20.23s20.96,8.59,20.96,20.23-8.93,20.22-20.96,20.22-21.07-8.64-21.07-20.22Zm36.38,0c0-8.76-6.55-15.2-15.31-15.2s-15.42,6.44-15.42,15.2,6.55,15.2,15.42,15.2,15.31-6.44,15.31-15.2Z"></path>
    <path class="cls-4" d="m806.32,683.15l-17.34,39.54h-5.59l-17.4-39.54h6.1l14.24,32.48,14.35-32.48h5.65Z"></path>
    <path class="cls-4" d="m835.3,712.81h-21.01l-4.35,9.89h-5.82l17.91-39.54h5.59l17.96,39.54h-5.93l-4.35-9.89Zm-1.98-4.52l-8.53-19.38-8.53,19.38h17.06Z"></path>
    <path class="cls-4" d="m857.33,688.06h-13.56v-4.91h32.71v4.91h-13.56v34.63h-5.59v-34.63Z"></path>
    <path class="cls-4" d="m882.64,683.15h5.65v39.54h-5.65v-39.54Z"></path>
    <path class="cls-4" d="m896.93,702.92c0-11.58,8.93-20.23,21.07-20.23s20.96,8.59,20.96,20.23-8.93,20.22-20.96,20.22-21.07-8.64-21.07-20.22Zm36.38,0c0-8.76-6.55-15.2-15.31-15.2s-15.42,6.44-15.42,15.2,6.55,15.2,15.42,15.2,15.31-6.44,15.31-15.2Z"></path>
    <path class="cls-4" d="m981.61,683.15v39.54h-4.63l-23.73-29.49v29.49h-5.65v-39.54h4.63l23.73,29.49v-29.49h5.65Z"></path>
    <path class="cls-4" d="m989.85,718.17l2.09-4.41c2.94,2.65,7.97,4.57,13.05,4.57,6.84,0,9.77-2.65,9.77-6.1,0-9.66-23.95-3.56-23.95-18.25,0-6.1,4.75-11.3,15.14-11.3,4.63,0,9.43,1.24,12.71,3.5l-1.86,4.52c-3.45-2.2-7.34-3.22-10.85-3.22-6.72,0-9.6,2.83-9.6,6.27,0,9.66,23.95,3.62,23.95,18.14,0,6.05-4.86,11.24-15.31,11.24-6.05,0-11.98-2.03-15.14-4.97Z"></path>
  </g>
  <path class="cls-2" d="m969.66,639.52H107.75c-1.69,0-3.05-1.37-3.05-3.05s1.37-3.05,3.05-3.05h861.91c1.69,0,3.05,1.37,3.05,3.05s-1.37,3.05-3.05,3.05Z"></path>
  <g>
    <path class="cls-3" d="m235.13,588.37c-3.36,0-5.04-1.68-5.04-5.04v-47.26l-52.68,47.26c-3.74,3.55-7.85,5.04-11.58,5.04h-10.83c-3.74,0-8.22-1.49-12.52-5.04l-59.03-47.26v47.26c0,3.36-1.68,5.04-5.04,5.04h-17.37c-3.36,0-5.04-1.68-5.04-5.04v-117.49c0-3.18,1.68-4.86,5.04-4.86h16.06c4.11,0,8.22,1.68,11.95,4.86l87.61,79.2,93.58-79.2c3.92-3.36,8.59-4.86,13.26-4.86h13.45c3.36,0,5.04,1.68,5.04,4.86v117.49c0,3.36-1.68,5.04-5.04,5.04h-61.83Z"></path>
    <path class="cls-3" d="m493.86,588.37c-4.3,0-7.28-1.31-9.71-3.74l-72.29-74.9-57.16,56.6h84.8c3.36,0,5.04,1.68,5.04,5.04v11.95c0,3.36-1.68,5.04-5.04,5.04h-123.47c-2.06,0-3.55-1.31-3.55-3.18,0-.75.37-2.05,1.49-2.99l117.12-117.68c2.24-2.24,4.86-3.55,7.85-3.55h12.33c3.36,0,5.98,1.31,8.22,3.55l115.44,117.31c1.12,1.12,1.49,2.61,1.49,3.55,0,1.68-1.31,2.99-4.3,2.99h-78.27Z"></path>
    <path class="cls-3" d="m592.12,588.37c-3.18,0-4.86-1.68-4.86-5.04v-117.49c0-3.18,1.68-4.86,4.86-4.86h64.26c3.36,0,5.04,1.68,5.04,4.86v117.49c0,3.36-1.68,5.04-5.04,5.04h-64.26Zm158.21,0c-5.23,0-8.59-1.49-12.52-5.04l-63.88-55.48c-2.62-2.24-3.55-4.48-3.55-8.96v-5.42c0-4.3.75-5.79,3.74-7.47l74.72-40.16c5.04-2.8,10.09-4.86,16.06-4.86h37.73c2.61,0,3.92,1.5,3.92,3.18,0,1.31-.75,2.43-2.24,3.18l-74.16,39.79,86.67,72.85c1.87,1.5,2.61,3.18,2.61,4.67,0,2.05-1.68,3.74-5.42,3.74h-63.7Z"></path>
    <path class="cls-3" d="m870.83,588.37c-36.42,0-61.46-27.65-61.46-63.7s24.47-63.7,61.46-63.7h91.53c37.17,0,61.64,27.27,61.64,63.7s-24.84,63.7-61.64,63.7h-91.53Zm78.64-76.4c0-22.98-5.79-29.14-22.04-29.14h-25.4c-14.76,0-20.55,6.54-20.55,29.14v20.36c0,25.22,6.35,34,20.55,34h25.4c15.32,0,22.04-8.59,22.04-34v-20.36Z"></path>
  </g>
  <g>
    <path class="cls-1" d="m747.41,361.23c-58.82-50.24-102.94-61.11-109.1-75.98-3.77-9.07,2.96-14.78-2.65-21.72-5.91-7.29-11.49-12.92-11.11-23.02.3-7.69,4.07-22.02,4.07-22.02,3.21-12.52.82-22.6,1.52-41.22,1.29-33.99,7.69-34.78,7.86-49.9.18-15.84-3.21-18.49,1.32-26.93,5.24-9.79,8.5-12.84,14.12-22.46.05-.09.09-.16.14-.25,7.3-12.74-3.7-28.25-18.19-25.79-24,4.08-44.38,10.68-61.25,17.82-130.12,55.05-177.69,195.72-190.87,243.38-1.39,5.08,2.72,10.81,7.9,9.72,60.43-12.74,84.32-20.45,150.28-12.26,69.82,8.68,153.18,41.66,201.85,57.9,4.43,1.49,7.68-4.22,4.12-7.27Zm-153.3-271.58c-10.9,7.31-21.59,14.7-32.01,22.44-38.97,28.62-74.98,61.01-102.38,101.09-4.25,5.94-10.03,14.18-14.9,20.67-.59.76-1.62,1.15-2.52.82-5.62-2.11,6.52-23.98,10.92-31.89,28.78-51.67,74.58-89.81,129.12-114.11,3.08-1.33,6.17-2.58,9.3-3.78,2.99-1.15,5.12,2.97,2.46,4.75Z"></path>
    <path class="cls-2" d="m253.03,401.43c78.17-49.18,169.94-80.83,263.37-75.52,61.71,3.46,120.47,25.55,179.11,42.81,35.69,10.8,71.88,20.14,108.37,27.67,36.1,7.14,73.44,8.16,110,3.01,14.84-2.21,35.55-5.83,33.89-4.85-30.58,16.66-65.88,23.57-100.4,25.93-23.24,1.4-46.89-.62-69.88-4.13-45.41-6.48-90.23-17.83-134.12-30.7-35.67-10.32-71.14-21.03-107.68-27.02-14.09-2.09-29.02-3.57-43.3-4.1-55.49-2.13-110.39,7.46-163.95,22.39-5.21,1.59-16.35,4.84-21.62,6.38-5.17,1.72-16.28,5.31-21.51,7.02-10.72,3.45-21.54,7.61-32.28,11.12h0Z"></path>
  </g>
</svg><style>@media (prefers-color-scheme: light) { :root { filter: none; } }
</style></svg>